<svg width="199" height="137" viewBox="0 0 199 137" fill="none" xmlns="http://www.w3.org/2000/svg">
<path d="M68.2897 10.8807C67.9514 9.73137 68.0616 8.49538 68.598 7.42519C69.1343 6.35499 70.0563 5.53127 71.1755 5.12239C72.2947 4.71351 73.5267 4.75035 74.6199 5.22522C75.7131 5.7001 76.585 6.5772 77.0575 7.67749L100.393 72.5852C108.296 94.5532 97.6244 116.609 76.5941 124.289C55.5638 131.969 33.3811 121.868 25.4775 99.9002L2.19255 34.9799C1.85426 33.8306 1.96459 32.5946 2.50094 31.5244C3.03729 30.4542 3.95923 29.6305 5.07844 29.2216C6.19765 28.8127 7.42968 28.8496 8.52288 29.3244C9.61608 29.7993 10.4879 30.6764 10.9604 31.7767L34.2203 96.508C40.483 113.886 57.5929 121.553 73.5504 115.739C89.5079 109.926 97.7747 93.04 91.537 75.6245L68.2897 10.8807Z" stroke="#3211FF" stroke-width="2.41" stroke-miterlimit="10"/>
<path d="M103.374 20.5985C103.109 19.9643 102.983 19.2839 103.002 18.6C103.021 17.9161 103.185 17.2434 103.485 16.624C103.784 16.0046 104.212 15.4516 104.742 15.0001C105.271 14.5485 105.891 14.208 106.563 13.9996L132.18 4.98999C158.142 -4.13149 184.937 7.10254 194.094 31.6585C203.252 56.2144 190.086 81.4787 164.11 90.6002L142.465 98.1931L153.915 128.888C154.261 130.021 154.148 131.239 153.6 132.293C153.051 133.348 152.109 134.159 150.964 134.562C149.82 134.965 148.56 134.929 147.442 134.461C146.324 133.993 145.432 133.129 144.949 132.044L103.374 20.5985ZM161.011 82.1995C181.824 74.8923 192.609 54.8599 185.129 34.815C177.649 14.7701 156.144 6.08358 135.33 13.3907L113.697 20.9961L139.314 89.8048L161.011 82.1995Z" stroke="#3211FF" stroke-width="2.41" stroke-miterlimit="10"/>
</svg>
