<svg xmlns="http://www.w3.org/2000/svg" viewBox="0 0 478.165 478.165" style="enable-background:new 0 0 478.165 478.165" xml:space="preserve"><path d="M442.78 0H35.424C15.859 0 0 15.401 0 34.288v409.688c0 18.828 15.859 34.189 35.424 34.189h407.337c19.585 0 35.404-15.361 35.404-34.189V34.288C478.165 15.401 462.345 0 442.78 0zM145.003 400.244H72.781V184.412h72.223v215.832zm-36.161-245.279h-.478c-24.247 0-39.927-16.696-39.927-37.337 0-21.219 16.158-37.337 40.863-37.337 24.725 0 39.927 16.118 40.385 37.337.02 20.641-15.64 37.337-40.843 37.337zm296.542 245.279h-72.083V284.807c0-29.009-10.599-48.952-36.739-48.952-20.063 0-31.798 13.428-36.958 26.458-1.893 4.423-2.391 10.898-2.391 17.393v120.537H184.95s.916-195.629 0-215.832h72.263v30.603c9.484-14.684 26.658-35.703 65.01-35.703 47.577 0 83.161 30.862 83.161 97.167v123.766zm-148.61-184.532c.06-.219.159-.438.418-.677v.677h-.418z"/></svg>