<svg width="666" height="378" fill="none" xmlns="http://www.w3.org/2000/svg"><path d="M218.529 146.758c-3.105-8.578-11.01-12.674-19.114-9.749-8.104 2.926-11.545 11.131-8.441 19.709l22.181 61.167c4.75 13.097-1.122 26.145-13.715 30.776-12.593 4.632-25.56-1.743-30.31-14.84l-22.181-61.18c-3.104-8.565-11.009-12.674-19.113-9.736-8.105 2.939-11.546 11.118-8.441 19.696l28.464 78.436a4.64 4.64 0 0 1-2.872 5.685 4.66 4.66 0 0 1-3.429-.102 4.648 4.648 0 0 1-2.426-2.421l-28.452-78.435c-4.875-13.421 1.172-26.594 14.126-31.275 12.954-4.681 26.046 1.569 30.921 14.94l22.23 61.329c2.993 8.255 10.673 12.251 18.453 9.437 7.78-2.813 11.122-10.782 8.129-19.036l-22.243-61.329c-4.862-13.433 1.172-26.606 14.139-31.287 12.967-4.681 26.046 1.569 30.921 14.94l28.452 78.436a4.643 4.643 0 0 1-2.872 5.684 4.655 4.655 0 0 1-5.855-2.522l-28.552-78.323Zm101.494 55.127c-26.11 9.046-52.877-2.157-62.082-26.512-9.206-24.355 3.862-49.302 29.972-58.398l8.858-3.069c16.068-5.571 30.9 1.603 35.805 14.581 4.905 12.979-1.738 27.424-17.806 32.995l-26.947 9.33a4.816 4.816 0 0 1-3.537-.156 4.506 4.506 0 0 1-2.385-2.506 4.252 4.252 0 0 1 .164-3.386 4.552 4.552 0 0 1 2.617-2.283l26.934-9.331c10.711-3.697 15.14-13.04 11.922-21.532-3.219-8.492-12.875-13.102-23.613-9.392l-8.87 3.081c-20.909 7.248-31.531 27.239-24.076 46.935 7.454 19.696 28.968 28.558 49.89 21.311l23.934-8.295a4.811 4.811 0 0 1 3.537.157 4.501 4.501 0 0 1 2.385 2.505 4.252 4.252 0 0 1-.164 3.386 4.56 4.56 0 0 1-2.617 2.284l-23.921 8.295Zm123.216-44.809c-16.011 5.74-32.085-1.712-37.932-17.725l-17.865-48.827-14.221 5.1a4.51 4.51 0 0 1-5.009-1.052 4.422 4.422 0 0 1-.944-1.523 4.392 4.392 0 0 1 .205-3.494 4.484 4.484 0 0 1 2.701-2.259l14.232-5.099-7.788-21.297a4.552 4.552 0 0 1 .306-3.375 4.628 4.628 0 0 1 2.56-2.25 4.682 4.682 0 0 1 3.421.1 4.621 4.621 0 0 1 2.422 2.396l7.788 21.297 29.746-10.667a4.541 4.541 0 0 1 3.44.166 4.474 4.474 0 0 1 2.314 2.526 4.416 4.416 0 0 1-.168 3.406 4.482 4.482 0 0 1-2.55 2.29l-29.759 10.668 17.853 48.827c4.217 11.529 14.854 16.592 26.126 12.539l10.662-3.83a4.523 4.523 0 0 1 3.535.021 4.465 4.465 0 0 1 2.418 2.552 4.399 4.399 0 0 1-.205 3.495 4.433 4.433 0 0 1-1.116 1.404 4.488 4.488 0 0 1-1.584.854l-10.588 3.757ZM535.29 11.04a4.731 4.731 0 0 1 .308-3.455 4.681 4.681 0 0 1 2.577-2.303 4.644 4.644 0 0 1 3.445.103 4.691 4.691 0 0 1 2.438 2.452l23.335 64.908c7.903 21.968-2.769 44.024-23.799 51.704s-43.213-2.421-51.117-24.389l-23.284-64.92a4.731 4.731 0 0 1 .308-3.456 4.681 4.681 0 0 1 2.577-2.303 4.644 4.644 0 0 1 3.445.103 4.686 4.686 0 0 1 2.437 2.452l23.26 64.732c6.263 17.377 23.373 25.045 39.33 19.231 15.958-5.813 24.225-22.7 17.987-40.115L535.29 11.04Zm35.084 9.718a4.831 4.831 0 0 1 .111-3.974 4.978 4.978 0 0 1 1.257-1.624 5.155 5.155 0 0 1 1.821-1l25.617-9.01c25.962-9.122 52.757 2.112 61.914 26.668 9.158 24.556-4.008 49.82-29.984 58.942l-21.645 7.593 11.45 30.695a4.512 4.512 0 0 1-.315 3.405 4.736 4.736 0 0 1-2.636 2.269 4.912 4.912 0 0 1-3.522-.101 4.71 4.71 0 0 1-2.493-2.417L570.374 20.758Zm57.637 61.601c20.813-7.307 31.598-27.34 24.118-47.384-7.48-20.045-28.985-28.732-49.799-21.425l-21.633 7.606 25.617 68.809 21.697-7.606Z" stroke="#3211FF" stroke-width="2.41" stroke-miterlimit="10"/><path d="M299.051 119a4.084 4.084 0 0 1-1.591-.3 3.998 3.998 0 0 1-1.338-.895 3.906 3.906 0 0 1-.866-1.342 3.842 3.842 0 0 1-.251-1.569V97.79c0-13.669 10.463-24.204 25.255-24.204h8.93c10.605 0 18.143-7.58 18.143-17.382 0-9.803-7.538-17.092-18.143-17.092h-28.889A3.665 3.665 0 0 1 297.872 38a3.526 3.526 0 0 1-.989-2.443c0-.908.354-1.782.989-2.443A3.665 3.665 0 0 1 300.301 32h29.031C344.395 32 355 42.523 355 56.204c0 13.68-10.605 24.494-25.668 24.494h-8.788c-10.605 0-18.04 7.251-18.04 17.092v14.098h46.324a3.664 3.664 0 0 1 2.428 1.113c.636.661.989 1.535.989 2.443a3.52 3.52 0 0 1-.989 2.442 3.665 3.665 0 0 1-2.428 1.114h-49.777Z" stroke="#3211FF" stroke-width="2.41" stroke-miterlimit="10"/><path fill-rule="evenodd" clip-rule="evenodd" d="M0 365.405v2.552l355.252-123.851 2.189 6.28L0 375.001v2.552l359.373-125.288 1.137-.396-.396-1.138-2.983-8.556-.397-1.138-1.137.397L0 365.405Z" fill="#3211FF"/></svg>