<svg width="508" height="444" fill="none" xmlns="http://www.w3.org/2000/svg"><path d="M141.991 205.626c-4.227-5.974-11.181-7.463-16.807-3.479-5.625 3.985-6.552 11.03-2.325 17.004l30.061 42.569c6.436 9.13 4.685 20.48-4.09 26.696-8.782 6.193-20.089 4.065-26.524-5.066l-30.062-42.569c-4.226-5.974-11.181-7.463-16.806-3.478-5.626 3.984-6.553 11.029-2.326 17.003l38.569 54.625a3.696 3.696 0 0 1-.9 5.181 3.687 3.687 0 0 1-5.182-.9L67.03 258.587c-6.594-9.356-4.72-20.788 4.28-27.164 9.007-6.352 20.415-4.301 27.032 5.049l30.139 42.67c4.067 5.749 10.815 7.197 16.222 3.395 5.406-3.803 6.28-10.686 2.235-16.442l-30.138-42.67c-6.595-9.355-4.721-20.788 4.28-27.163 9.006-6.353 20.414-4.301 27.032 5.048l38.569 54.625a3.696 3.696 0 0 1-.901 5.181c-1.699 1.198-3.982.798-5.181-.901l-38.569-54.624-.039.035Zm88.085 23.172c-17.558 12.409-39.949 9.142-52.039-7.965-12.091-17.107-7.67-39.302 9.887-51.711l5.974-4.227c10.807-7.627 23.433-5.054 29.862 4.053 6.435 9.131 4.571 21.758-6.259 29.392l-18.131 12.811c-1.575 1.115-3.881.722-4.997-.854-1.116-1.575-.722-3.881.853-4.997l18.131-12.81c7.207-5.078 8.525-13.28 4.305-19.232-4.221-5.951-12.436-7.584-19.643-2.506l-5.974 4.227c-14.081 9.942-17.738 27.701-7.956 41.557 9.859 13.957 27.762 16.354 41.82 6.418l16.106-11.376c1.575-1.116 3.882-.722 4.997.853 1.116 1.575.722 3.882-.853 4.997l-16.106 11.377.023-.007Zm85.896-60.648c-11.155 7.87-25.178 5.46-33.124-5.797l-24.264-34.339-9.906 6.99c-1.576 1.116-3.882.722-4.998-.853-1.115-1.575-.722-3.881.854-4.997l9.906-6.99-10.579-14.981a3.687 3.687 0 0 1 .9-5.181 3.687 3.687 0 0 1 5.182.9l10.579 14.981 20.707-14.64c1.576-1.116 3.882-.722 4.998.853 1.115 1.575.721 3.881-.854 4.997l-20.707 14.641 24.264 34.338c5.715 8.107 15.023 9.806 22.905 4.25l7.431-5.237c1.575-1.116 3.882-.722 4.997.853 1.116 1.575.722 3.882-.853 4.997l-7.431 5.237-.007-.022Zm40.485-132.403a3.686 3.686 0 0 1 .9-5.18c1.699-1.2 4.006-.805 5.181.9l31.496 44.594c10.656 15.082 7.069 34.166-7.439 44.42-14.531 10.261-33.699 7.258-44.355-7.824l-31.496-44.594a3.686 3.686 0 0 1 .9-5.181 3.687 3.687 0 0 1 5.182.9l31.413 44.47c8.424 11.932 23.186 14.188 34.212 6.379 11.025-7.81 13.856-22.436 5.431-34.368l-31.413-44.47-.012-.046Zm28.958-1.024c-1.357-1.924-1.04-4.331.985-5.766l17.332-12.25c17.557-12.409 40.073-9.224 52.163 7.883 12.091 17.107 7.569 39.378-10.011 51.794L431.252 86.72l15.102 21.411a3.686 3.686 0 0 1-.9 5.181 3.686 3.686 0 0 1-5.181-.9l-54.887-77.706.029.016Zm56.354 35.827c14.081-9.942 17.916-27.677 8.057-41.634-9.783-13.856-27.863-16.277-41.944-6.335L393.25 32.918l33.887 47.969 14.632-10.337Z" stroke="#3211FF" stroke-width="1.02" stroke-miterlimit="10"/><path d="M198.025 167.208c-1.772.486-3.395-.535-3.881-2.307l-3.568-13.019c-2.852-10.406 2.765-20.568 13.807-23.595l6.657-1.824c7.907-2.168 11.972-9.438 9.917-16.935-2.055-7.498-9.203-11.475-17.109-9.307l-21.562 5.909c-1.454.399-3.046-.508-3.445-1.962-.398-1.454.509-3.046 1.963-3.445l21.652-5.935c11.247-3.082 21.352 2.77 24.204 13.177 2.852 10.406-2.794 20.82-14.04 23.903l-6.567 1.8c-7.906 2.167-11.914 9.201-9.859 16.699l2.939 10.724 34.581-9.479c1.454-.398 3.046.509 3.445 1.963.398 1.454-.509 3.046-1.963 3.445l-37.171 10.188Z" stroke="#3211FF" stroke-width="1.02" stroke-miterlimit="10"/><path fill-rule="evenodd" clip-rule="evenodd" d="m271.248 257.5.42-.289-.29-.42-4.088-5.938-.289-.42-.42.289L.712 433.777v1.238L266.74 251.852l3.51 5.097L.712 442.529v1.238L271.248 257.5Z" fill="#3211FF"/></svg>